<svg width="24" height="24" viewBox="0 0 24 24" fill="none" xmlns="http://www.w3.org/2000/svg">
<g id="btn">
<g id="ico-container">
<rect width="24" height="24" rx="4" fill="#25252A"/>
<rect x="0.5" y="0.5" width="23" height="23" rx="3.5" stroke="#353539" stroke-opacity="0.3"/>
</g>
<path id="Union" d="M11.4334 14.3756L11.4334 14.3755L11.4316 14.3773L9.33997 16.3886C9.1565 16.565 9.1558 16.8497 9.33848 17.027L9.78937 17.4644C9.97613 17.6456 10.2825 17.6451 10.4687 17.4633L15.7251 12.3267C15.9054 12.1506 15.9056 11.8692 15.7257 11.6927L10.4688 6.53731C10.2828 6.35489 9.97588 6.35415 9.78889 6.53557L9.33735 6.97366C9.15526 7.15033 9.15526 7.43392 9.33735 7.61058L11.3481 9.56147L11.3481 9.56147L11.3491 9.56241C12.0325 10.2075 12.5934 10.5131 13.3103 10.6762C13.4499 10.708 13.5412 10.8185 13.5412 10.9361V11.3244V12.6752V13.0647C13.5412 13.1819 13.4504 13.2922 13.3113 13.3248C12.6165 13.4874 12.0779 13.786 11.4334 14.3756Z" fill="#EFEFE5" stroke="#EFEFE5" stroke-width="0.2"/>
</g>
</svg>
