<svg width="20" height="20" viewBox="0 0 20 20" fill="none" xmlns="http://www.w3.org/2000/svg">
<mask id="path-1-inside-1_1822_17534" fill="white">
<path fill-rule="evenodd" clip-rule="evenodd" d="M1.32082 12.7797C1.50136 12.7797 1.66067 12.8958 1.72339 13.0651C2.96896 16.4273 6.20464 18.8236 10 18.8236C13.7954 18.8236 17.031 16.4273 18.2766 13.0651C18.3393 12.8958 18.4986 12.7797 18.6792 12.7797H19.0516C19.3304 12.7797 19.5313 13.0473 19.4391 13.3104C18.0728 17.2064 14.3626 20.0001 10 20.0001C5.63736 20.0001 1.92722 17.2064 0.560937 13.3104C0.468673 13.0473 0.669577 12.7797 0.948377 12.7797H1.32082ZM4.76837e-07 10.0032V9.99694C1.78814e-07 9.99798 0 9.99902 0 10.0001C0 10.0011 1.78814e-07 10.0021 4.76837e-07 10.0032ZM18.8853 6.77972C19.1723 6.77972 19.3738 6.49746 19.2656 6.23167C17.7776 2.57663 14.1897 6.10352e-05 10 6.10352e-05C5.8103 6.10352e-05 2.22239 2.57663 0.734362 6.23167C0.626156 6.49746 0.827722 6.77972 1.11469 6.77972H1.49692C1.66924 6.77972 1.82313 6.67373 1.89124 6.51544C3.24249 3.37524 6.36448 1.17653 10 1.17653C13.6355 1.17653 16.7575 3.37524 18.1088 6.51544C18.1769 6.67373 18.3308 6.77972 18.5031 6.77972H18.8853Z"/>
</mask>
<path d="M4.76837e-07 10.0032L-1.17647 10.0035L1.17647 10.0032H4.76837e-07ZM4.76837e-07 9.99694H1.17647L-1.17647 9.9966L4.76837e-07 9.99694ZM10 1.17653V5.97239e-05V1.17653ZM19.2656 6.23167L18.176 6.67528L19.2656 6.23167ZM18.1088 6.51544L17.0281 6.98046L18.1088 6.51544ZM19.4391 13.3104L20.5492 13.6998L19.4391 13.3104ZM18.2766 13.0651L17.1734 12.6564L18.2766 13.0651ZM0.620191 13.4738C2.03117 17.2825 5.69674 20.0001 10 20.0001V17.6471C6.71254 17.6471 3.90675 15.5721 2.82659 12.6564L0.620191 13.4738ZM10 20.0001C14.3033 20.0001 17.9688 17.2825 19.3798 13.4738L17.1734 12.6564C16.0933 15.5721 13.2875 17.6471 10 17.6471V20.0001ZM19.0516 11.6032H18.6792V13.9562H19.0516V11.6032ZM10 21.1765C14.8777 21.1765 19.0228 18.0525 20.5492 13.6998L18.3289 12.9211C17.1228 16.3603 13.8475 18.8236 10 18.8236V21.1765ZM-0.549244 13.6998C0.977237 18.0525 5.12228 21.1765 10 21.1765V18.8236C6.15245 18.8236 2.87721 16.3603 1.67112 12.9211L-0.549244 13.6998ZM1.32082 11.6032H0.948377V13.9562H1.32082V11.6032ZM1.17647 10.0032V9.99694H-1.17647V10.0032H1.17647ZM-1.17647 9.9966C-1.17647 9.99773 -1.17647 9.99889 -1.17647 10.0001H1.17647C1.17647 9.99915 1.17647 9.99823 1.17647 9.99728L-1.17647 9.9966ZM-1.17647 10.0001C-1.17647 10.0012 -1.17647 10.0024 -1.17647 10.0035L1.17647 10.0028C1.17647 10.0019 1.17647 10.001 1.17647 10.0001H-1.17647ZM20.3553 5.78806C18.6931 1.7052 14.6845 -1.17641 10 -1.17641V1.17653C13.6949 1.17653 16.8621 3.44805 18.176 6.67528L20.3553 5.78806ZM10 -1.17641C5.31554 -1.17641 1.30693 1.70521 -0.355269 5.78806L1.82399 6.67528C3.13785 3.44805 6.30506 1.17653 10 1.17653V-1.17641ZM1.11469 7.95619H1.49692V5.60325H1.11469V7.95619ZM10 5.97239e-05C5.87791 5.99869e-05 2.34096 2.49393 0.810575 6.05043L2.97191 6.98046C4.14403 4.25654 6.85105 2.353 10 2.353V5.97239e-05ZM19.1894 6.05043C17.659 2.49393 14.1221 5.97239e-05 10 5.97239e-05V2.353C13.1489 2.353 15.856 4.25654 17.0281 6.98046L19.1894 6.05043ZM18.5031 7.95619H18.8853V5.60325H18.5031V7.95619ZM1.49692 7.95619C2.1612 7.95619 2.72687 7.54993 2.97191 6.98046L0.810575 6.05043C0.919395 5.79753 1.17728 5.60325 1.49692 5.60325V7.95619ZM18.176 6.67528C17.949 6.11771 18.3912 5.60325 18.8853 5.60325V7.95619C19.9534 7.95619 20.7987 6.8772 20.3553 5.78806L18.176 6.67528ZM17.0281 6.98046C17.2731 7.54993 17.8388 7.95619 18.5031 7.95619V5.60325C18.8227 5.60325 19.0806 5.79753 19.1894 6.05043L17.0281 6.98046ZM19.0516 13.9562C18.5698 13.9562 18.1365 13.4697 18.3289 12.9211L20.5492 13.6998C20.9262 12.625 20.0911 11.6032 19.0516 11.6032V13.9562ZM19.3798 13.4738C19.2799 13.7435 19.0144 13.9562 18.6792 13.9562V11.6032C17.9829 11.6032 17.3987 12.0482 17.1734 12.6564L19.3798 13.4738ZM1.67112 12.9211C1.8635 13.4697 1.43022 13.9562 0.948377 13.9562V11.6032C-0.0910686 11.6032 -0.926157 12.625 -0.549244 13.6998L1.67112 12.9211ZM-0.355269 5.78806C-0.798678 6.87721 0.0466147 7.95619 1.11469 7.95619V5.60325C1.60883 5.60325 2.05099 6.11771 1.82399 6.67528L-0.355269 5.78806ZM2.82659 12.6564C2.60127 12.0482 2.01711 11.6032 1.32082 11.6032V13.9562C0.985608 13.9562 0.720075 13.7435 0.620191 13.4738L2.82659 12.6564Z" fill="url(#paint0_angular_1822_17534)" mask="url(#path-1-inside-1_1822_17534)"/>
<path d="M11.7649 11.2622H13.1288C12.9968 13.0954 11.7796 13.946 10.3717 13.946H10.269V15.4125H9.09579V13.9166C7.68791 13.7553 6.5 12.7434 6.5 10.7489V9.6343C6.5 7.63979 7.68791 6.62787 9.09579 6.46655V5H10.269V6.43722H10.3717C11.7209 6.43722 12.9088 7.22916 13.0995 8.94502H11.7209C11.5743 8.24107 11.1636 7.80111 10.269 7.71312V12.6701C11.2516 12.5821 11.6623 12.0541 11.7649 11.2622ZM7.81989 10.5142C7.81989 11.5701 8.1572 12.3181 9.09579 12.5821V7.80111C8.1572 8.06509 7.81989 8.81303 7.81989 9.86894V10.5142Z" fill="#EFEFE5"/>
<defs>
<radialGradient id="paint0_angular_1822_17534" cx="0" cy="0" r="1" gradientUnits="userSpaceOnUse" gradientTransform="translate(9.90163 7.353) rotate(60.4757) scale(23.6893 23.4824)">
<stop offset="0.405776" stop-color="#FC6756"/>
<stop offset="0.490998" stop-color="#F8CF3E"/>
<stop offset="0.664381" stop-color="#26F4D0"/>
<stop offset="0.861167" stop-color="#724CE8"/>
</radialGradient>
</defs>
</svg>
