<svg width="463" height="228" viewBox="0 0 463 228" fill="none" xmlns="http://www.w3.org/2000/svg">
<g clip-path="url(#clip0_58_1004)">
<g clip-path="url(#clip1_58_1004)">
<path opacity="0.06" d="M32 -155V228" stroke="url(#paint0_linear_58_1004)"/>
<path opacity="0.06" d="M82 -155V228" stroke="url(#paint1_linear_58_1004)"/>
<path opacity="0.06" d="M132 -155V228" stroke="url(#paint2_linear_58_1004)"/>
<path opacity="0.06" d="M182 -155V228" stroke="url(#paint3_linear_58_1004)"/>
<path opacity="0.06" d="M232 -155V228" stroke="url(#paint4_linear_58_1004)"/>
<path opacity="0.06" d="M282 -155V228" stroke="url(#paint5_linear_58_1004)"/>
<path opacity="0.06" d="M332 -155V228" stroke="url(#paint6_linear_58_1004)"/>
<path opacity="0.06" d="M382 -155V228" stroke="url(#paint7_linear_58_1004)"/>
<path opacity="0.06" d="M432 -155V228" stroke="url(#paint8_linear_58_1004)"/>
<path opacity="0.06" d="M0 43L463 43" stroke="white"/>
<path opacity="0.06" d="M0 93L463 93" stroke="white"/>
<path opacity="0.06" d="M0 143L463 143" stroke="white"/>
<path opacity="0.06" d="M0 193L463 193" stroke="white"/>
</g>
<path opacity="0.4" d="M463 143H435.508C432.062 143 428.859 144.774 427.031 147.696L401.621 188.304C399.793 191.226 396.59 193 393.144 193H349" stroke="#353539" stroke-width="1.11319"/>
<path d="M344 193.5C343.724 193.5 343.5 193.276 343.5 193C343.5 192.724 343.724 192.5 344 192.5V193.5ZM384 193.5H344V192.5H384V193.5Z" fill="url(#paint9_linear_58_1004)"/>
<path opacity="0.4" d="M-25 143H30.1887C34.0274 143 37.5273 140.803 39.1953 137.345L57.8619 98.6547C59.5299 95.1974 63.0298 93 66.8684 93H93" stroke="#353539"/>
<path d="M101 93.5C101.276 93.5 101.5 93.2761 101.5 93C101.5 92.7239 101.276 92.5 101 92.5V93.5ZM59 93.5H101V92.5H59V93.5Z" fill="url(#paint10_linear_58_1004)"/>
<g opacity="0.35">
<path d="M37 42.2554V43.532L27 43.532L27 42.2554H37Z" fill="#7C7C89"/>
<path d="M32.6249 48H31.5833L31.5833 38L32.6249 38L32.6249 48Z" fill="#7C7C89"/>
</g>
<g opacity="0.35">
<path d="M85.0361 139L85.9343 139.906L78.8982 147L78 146.094L85.0361 139Z" fill="#7C7C89"/>
<path d="M86 146.179L85.2671 146.918L78.231 139.824L78.9639 139.085L86 146.179Z" fill="#7C7C89"/>
</g>
<g opacity="0.35">
<path d="M337 142.255V143.532L327 143.532L327 142.255L337 142.255Z" fill="#7C7C89"/>
<path d="M332.625 148H331.583L331.583 138L332.625 138L332.625 148Z" fill="#7C7C89"/>
</g>
<g opacity="0.35">
<path d="M386 46.0365L385.094 46.9348L378 39.8983L378.906 39L386 46.0365Z" fill="#7C7C89"/>
<path d="M378.821 47L378.082 46.267L385.176 39.2306L385.915 39.9635L378.821 47Z" fill="#7C7C89"/>
</g>
</g>
<defs>
<linearGradient id="paint0_linear_58_1004" x1="32.5" y1="-155" x2="32.5" y2="228" gradientUnits="userSpaceOnUse">
<stop offset="0.944615" stop-color="white"/>
<stop offset="1" stop-color="white" stop-opacity="0"/>
</linearGradient>
<linearGradient id="paint1_linear_58_1004" x1="82.5" y1="-155" x2="82.5" y2="228" gradientUnits="userSpaceOnUse">
<stop offset="0.944615" stop-color="white"/>
<stop offset="1" stop-color="white" stop-opacity="0"/>
</linearGradient>
<linearGradient id="paint2_linear_58_1004" x1="132.5" y1="-155" x2="132.5" y2="228" gradientUnits="userSpaceOnUse">
<stop offset="0.944615" stop-color="white"/>
<stop offset="1" stop-color="white" stop-opacity="0"/>
</linearGradient>
<linearGradient id="paint3_linear_58_1004" x1="182.5" y1="-155" x2="182.5" y2="228" gradientUnits="userSpaceOnUse">
<stop offset="0.944615" stop-color="white"/>
<stop offset="1" stop-color="white" stop-opacity="0"/>
</linearGradient>
<linearGradient id="paint4_linear_58_1004" x1="232.5" y1="-155" x2="232.5" y2="228" gradientUnits="userSpaceOnUse">
<stop offset="0.944615" stop-color="white"/>
<stop offset="1" stop-color="white" stop-opacity="0"/>
</linearGradient>
<linearGradient id="paint5_linear_58_1004" x1="282.5" y1="-155" x2="282.5" y2="228" gradientUnits="userSpaceOnUse">
<stop offset="0.944615" stop-color="white"/>
<stop offset="1" stop-color="white" stop-opacity="0"/>
</linearGradient>
<linearGradient id="paint6_linear_58_1004" x1="332.5" y1="-155" x2="332.5" y2="228" gradientUnits="userSpaceOnUse">
<stop offset="0.944615" stop-color="white"/>
<stop offset="1" stop-color="white" stop-opacity="0"/>
</linearGradient>
<linearGradient id="paint7_linear_58_1004" x1="382.5" y1="-155" x2="382.5" y2="228" gradientUnits="userSpaceOnUse">
<stop offset="0.944615" stop-color="white"/>
<stop offset="1" stop-color="white" stop-opacity="0"/>
</linearGradient>
<linearGradient id="paint8_linear_58_1004" x1="432.5" y1="-155" x2="432.5" y2="228" gradientUnits="userSpaceOnUse">
<stop offset="0.944615" stop-color="white"/>
<stop offset="1" stop-color="white" stop-opacity="0"/>
</linearGradient>
<linearGradient id="paint9_linear_58_1004" x1="376.27" y1="193.332" x2="344.556" y2="193.332" gradientUnits="userSpaceOnUse">
<stop offset="0.228413" stop-color="#FF693A" stop-opacity="0"/>
<stop offset="0.478421" stop-color="#FFEA2F" stop-opacity="0.397904"/>
<stop offset="0.707595" stop-color="#4CBFFF"/>
<stop offset="1" stop-color="#5D4FFF"/>
</linearGradient>
<linearGradient id="paint10_linear_58_1004" x1="67.1165" y1="93.3324" x2="100.416" y2="93.3324" gradientUnits="userSpaceOnUse">
<stop offset="0.228413" stop-color="#FF693A" stop-opacity="0"/>
<stop offset="0.478421" stop-color="#FFEA2F" stop-opacity="0.397904"/>
<stop offset="0.707595" stop-color="#4CBFFF"/>
<stop offset="1" stop-color="#5D4FFF"/>
</linearGradient>
<clipPath id="clip0_58_1004">
<rect width="463" height="228" fill="white"/>
</clipPath>
<clipPath id="clip1_58_1004">
<rect width="464" height="229" fill="white"/>
</clipPath>
</defs>
</svg>
