<svg width="20" height="20" viewBox="0 0 20 20" fill="none" xmlns="http://www.w3.org/2000/svg">
<g clip-path="url(#clip0_1822_17555)">
<path d="M0.5 10C0.5 4.75329 4.75329 0.5 10 0.5C15.2467 0.5 19.5 4.75329 19.5 10C19.5 15.2467 15.2467 19.5 10 19.5C4.75329 19.5 0.5 15.2467 0.5 10Z" stroke="url(#paint0_angular_1822_17555)"/>
<path d="M14.1667 6.25H13.3333V5.83333C13.3331 5.61239 13.2452 5.40055 13.089 5.24432C12.9328 5.08809 12.7209 5.00022 12.5 5H7.5C7.27905 5.00022 7.06722 5.08809 6.91099 5.24432C6.75476 5.40055 6.66689 5.61239 6.66667 5.83333V6.25H5.83333C5.61239 6.25022 5.40055 6.33809 5.24432 6.49432C5.08809 6.65055 5.00022 6.86239 5 7.08333V8.33333C5.00055 8.77519 5.17632 9.19879 5.48876 9.51124C5.80121 9.82368 6.22481 9.99945 6.66667 10H6.80083C6.97446 10.6378 7.33004 11.2112 7.82416 11.6503C8.31828 12.0894 8.92955 12.3751 9.58333 12.4725V14.1667H7.5V15H12.5V14.1667H10.4167V12.4712C11.0789 12.3894 11.7012 12.1098 12.2021 11.6689C12.7031 11.2281 13.0596 10.6465 13.225 10H13.3333C13.7752 9.99945 14.1988 9.82368 14.5112 9.51124C14.8237 9.19879 14.9994 8.77519 15 8.33333V7.08333C14.9998 6.86239 14.9119 6.65055 14.7557 6.49432C14.5994 6.33809 14.3876 6.25022 14.1667 6.25ZM6.66667 9.16667C6.44572 9.16645 6.23389 9.07858 6.07765 8.92235C5.92142 8.76611 5.83355 8.55428 5.83333 8.33333V7.08333H6.66667V9.16667ZM12.5 9.16667C12.5 9.50145 12.4327 9.83283 12.3022 10.1411C12.1717 10.4494 11.9806 10.7284 11.7403 10.9614C11.4999 11.1945 11.2152 11.3769 10.903 11.4978C10.5908 11.6187 10.2575 11.6757 9.92292 11.6654C9.25942 11.6242 8.63734 11.3288 8.18607 10.8407C7.7348 10.3526 7.48907 9.70927 7.5 9.04458V5.83333H12.5V9.16667ZM14.1667 8.33333C14.1664 8.55428 14.0786 8.76611 13.9223 8.92235C13.7661 9.07858 13.5543 9.16645 13.3333 9.16667V7.08333H14.1667V8.33333Z" fill="#EFEFE5"/>
</g>
<defs>
<radialGradient id="paint0_angular_1822_17555" cx="0" cy="0" r="1" gradientUnits="userSpaceOnUse" gradientTransform="translate(10 7.35294) rotate(60.0764) scale(23.7837 23.7708)">
<stop offset="0.405776" stop-color="#FC6756"/>
<stop offset="0.490998" stop-color="#F8CF3E"/>
<stop offset="0.664381" stop-color="#26F4D0"/>
<stop offset="0.861167" stop-color="#724CE8"/>
</radialGradient>
<clipPath id="clip0_1822_17555">
<rect width="20" height="20" fill="white"/>
</clipPath>
</defs>
</svg>
